<?xml version="1.0" encoding="UTF-8"?> <svg xmlns="http://www.w3.org/2000/svg" width="650" height="550" viewBox="0 0 650 550" fill="none"><g clip-path="url(#clip0_3385_626)"><rect width="650" height="550" fill="#4657A1"></rect><ellipse cx="329.5" cy="489.5" rx="181.5" ry="23.5" fill="#262F63"></ellipse><g opacity="0.3"><circle cx="235.5" cy="88.5" r="32.5" fill="white"></circle><circle cx="235.499" cy="81.1612" r="11.5323" fill="#4C456F"></circle><path fill-rule="evenodd" clip-rule="evenodd" d="M220.464 117.32C220.016 115.665 219.775 113.909 219.775 112.088C219.775 102.245 226.816 94.2656 235.501 94.2656C244.186 94.2656 251.227 102.245 251.227 112.088C251.227 113.908 250.986 115.664 250.539 117.318C246.042 119.67 240.926 121 235.5 121C230.075 121 224.96 119.67 220.464 117.32Z" fill="#4E4872"></path><circle cx="505" cy="370" r="23" fill="white"></circle><circle cx="504.999" cy="364.806" r="8.16129" fill="#4C456F"></circle><path fill-rule="evenodd" clip-rule="evenodd" d="M494.358 390.395C494.042 389.225 493.871 387.981 493.871 386.693C493.871 379.727 498.854 374.08 505 374.08C511.147 374.08 516.129 379.727 516.129 386.693C516.129 387.981 515.959 389.224 515.642 390.394C512.46 392.058 508.839 393 504.999 393C501.16 393 497.54 392.059 494.358 390.395Z" fill="#4E4872"></path><circle cx="376" cy="68" r="16" fill="white"></circle><circle cx="376" cy="64.3864" r="5.67742" fill="#4C456F"></circle><path fill-rule="evenodd" clip-rule="evenodd" d="M368.597 82.1871C368.376 81.3728 368.258 80.5081 368.258 79.6121C368.258 74.7662 371.724 70.8379 376 70.8379C380.276 70.8379 383.742 74.7662 383.742 79.6121C383.742 80.5082 383.623 81.373 383.403 82.1874C381.189 83.3448 378.671 83.9993 376 83.9993C373.329 83.9993 370.81 83.3446 368.597 82.1871Z" fill="#4E4872"></path><circle cx="159.5" cy="278.5" r="19.5" fill="white"></circle><circle cx="159.499" cy="274.097" r="6.91935" fill="#4C456F"></circle><path fill-rule="evenodd" clip-rule="evenodd" d="M150.477 295.791C150.209 294.798 150.064 293.745 150.064 292.653C150.064 286.747 154.289 281.959 159.5 281.959C164.711 281.959 168.935 286.747 168.935 292.653C168.935 293.745 168.791 294.798 168.523 295.791C165.825 297.202 162.755 297.999 159.5 297.999C156.244 297.999 153.175 297.201 150.477 295.791Z" fill="#4E4872"></path></g><path d="M189 422.409L214.805 384L205.714 413.545H228L195.158 449L208.353 422.409H189Z" fill="#F6C5B5"></path><path fill-rule="evenodd" clip-rule="evenodd" d="M382.351 464.896C382.368 464.68 382.376 464.461 382.376 464.241V163.655C382.376 158.875 378.501 155 373.72 155H242.633V456.241C242.633 461.021 246.508 464.896 251.288 464.896H382.351Z" fill="black" fill-opacity="0.3"></path><rect x="262.633" y="118" width="230.368" height="336.896" rx="8.65544" fill="url(#paint0_linear_3385_626)"></rect><path d="M300.496 385.867C307.343 379.819 309.969 371.664 310.425 368.342C322.751 377.276 313.507 391.366 308.371 396.52C304.262 400.644 301.409 407.86 300.496 410.953C293.305 405.799 291.936 393.428 300.496 385.867Z" fill="#3245A6"></path><path d="M315.142 402.512C321.99 396.464 324.615 388.308 325.072 384.986C337.398 393.921 328.153 408.01 323.017 413.165C318.909 417.289 316.055 424.505 315.142 427.598C307.952 422.443 306.582 410.072 315.142 402.512Z" fill="#3245A6"></path><circle cx="375.153" cy="231.853" r="45.9404" fill="#3245A6"></circle><circle cx="375.153" cy="221.479" r="16.3014" fill="#ECF3FD"></circle><path fill-rule="evenodd" clip-rule="evenodd" d="M353.899 272.59C353.266 270.252 352.926 267.769 352.926 265.195C352.926 251.281 362.878 240.002 375.155 240.002C387.432 240.002 397.384 251.281 397.384 265.195C397.384 267.768 397.044 270.25 396.412 272.588C390.055 275.912 382.823 277.792 375.153 277.792C367.484 277.792 360.255 275.913 353.899 272.59Z" fill="#ECF3FD"></path><path d="M295.922 299.764C295.922 296.822 298.307 294.438 301.248 294.438H451.054C453.996 294.438 456.38 296.822 456.38 299.764V299.764C456.38 302.706 453.996 305.09 451.054 305.09H301.248C298.307 305.09 295.922 302.706 295.922 299.764V299.764Z" fill="#3245A6"></path><path d="M337.201 315.744C337.201 312.803 339.586 310.418 342.528 310.418H408.442C411.384 310.418 413.769 312.803 413.769 315.744V315.744C413.769 318.686 411.384 321.071 408.442 321.071H342.528C339.586 321.071 337.201 318.686 337.201 315.744V315.744Z" fill="#3245A6"></path><path fill-rule="evenodd" clip-rule="evenodd" d="M529.194 129.918C529.194 164.948 501.392 193.344 467.097 193.344C432.802 193.344 405 164.948 405 129.918C405 94.889 432.802 66.4922 467.097 66.4922C501.392 66.4922 529.194 94.889 529.194 129.918Z" fill="black" fill-opacity="0.3"></path><path d="M473.784 183.852C508.079 183.852 535.881 155.455 535.881 120.426C535.881 85.3968 508.079 57 473.784 57C439.489 57 411.688 85.3968 411.688 120.426C411.688 155.455 439.489 183.852 473.784 183.852Z" fill="white"></path><path d="M461.249 156.149C459.507 156.152 457.82 155.537 456.48 154.41L438.729 139.516C436.635 137.799 435.614 135.074 436.054 132.381C436.494 129.688 438.328 127.443 440.856 126.501C443.384 125.56 446.217 126.068 448.273 127.831L460.454 138.051L498.526 94.5459C501.269 91.4119 506.001 91.1251 509.093 93.9052C512.186 96.6854 512.469 101.48 509.725 104.614L466.854 153.599C465.434 155.225 463.392 156.155 461.249 156.149Z" fill="#88C9BD"></path><rect x="114.5" y="419.209" width="8.14904" height="57.8152" stroke="white"></rect><rect x="128.877" y="441.432" width="8.14904" height="35.5962" stroke="white"></rect><rect x="143.254" y="410.061" width="8.14904" height="66.9643" stroke="white"></rect><rect x="157.631" y="395.682" width="8.14904" height="81.3413" stroke="white"></rect><path d="M320.053 472.947C320.053 472.947 310.359 477.034 288.566 478.753C276.636 479.682 261.077 479.895 241.496 478.324C186.149 482.768 162.938 472.947 162.938 472.947C120.009 429.112 170.092 335.192 187.979 312.821C196.248 302.488 208.33 298.269 218.938 296.714C226.418 295.641 234.013 295.634 241.496 296.694C248.979 295.634 256.576 295.641 264.057 296.714C269.698 297.539 275.759 299.118 281.436 301.979C286.694 304.562 291.326 308.263 295.008 312.821C312.899 335.192 362.982 429.112 320.053 472.947Z" fill="url(#paint1_linear_3385_626)"></path><path d="M284.128 241.329C284.128 241.329 279.685 220.07 242.935 238.55C206.184 257.03 275.804 252.845 275.804 252.845C275.804 252.845 284.58 247.536 284.128 241.329Z" fill="#E8A341"></path><path d="M212.2 274.75C212.2 274.75 187.561 247.494 201.007 235.401C211.554 225.925 242.083 238.206 254.766 243.926C260.232 246.425 266.17 247.731 272.182 247.758C278.092 247.758 284.03 246.584 284.142 241.886C284.142 241.886 284.544 262.645 269.219 274.754C253.894 286.864 212.2 274.75 212.2 274.75Z" fill="url(#paint2_linear_3385_626)"></path><path d="M240.568 279.336C240.568 279.336 259.011 273.078 264.674 260.668C264.674 260.668 264.447 272.625 255.613 277.363C246.779 282.101 240.568 279.336 240.568 279.336Z" fill="#E8A341"></path><path d="M269.575 274.576H212.49C209.563 274.576 207.191 276.889 207.191 279.741V280.537C207.191 283.389 209.563 285.702 212.49 285.702H269.575C272.501 285.702 274.873 283.389 274.873 280.537V279.741C274.873 276.889 272.501 274.576 269.575 274.576Z" fill="#262F63"></path><path d="M194.211 465.568C194.211 465.568 244.082 492.687 288.779 465.568C288.779 465.568 241.858 473.749 194.211 465.568Z" fill="#E8A341"></path><path d="M212.754 253.252C212.754 253.252 216.091 271.8 229.442 274.576C229.442 274.576 214.759 261.473 212.754 253.252Z" fill="#E8A341"></path><path d="M171.667 387.688C171.667 387.688 165.532 424.343 191.43 434.045C191.43 434.045 170.303 407.718 171.667 387.688Z" fill="#E8A341"></path><path opacity="0.34" d="M237.324 394.179C255.501 394.179 270.237 379.443 270.237 361.265C270.237 343.087 255.501 328.352 237.324 328.352C219.146 328.352 204.41 343.087 204.41 361.265C204.41 379.443 219.146 394.179 237.324 394.179Z" fill="#0A0A0A"></path><path d="M269.577 285.699H212.487C209.563 285.699 207.191 287.982 207.191 290.799C207.191 293.615 209.563 295.898 212.487 295.898H269.577C272.502 295.898 274.873 293.615 274.873 290.799C274.873 287.982 272.502 285.699 269.577 285.699Z" fill="#262F63"></path><path d="M241.69 390.237C260.123 390.237 275.067 375.293 275.067 356.859C275.067 338.426 260.123 323.482 241.69 323.482C223.256 323.482 208.312 338.426 208.312 356.859C208.312 375.293 223.256 390.237 241.69 390.237Z" fill="#EBF2FC"></path><path d="M245.562 346.994C244.465 344.567 242.663 343.111 239.987 342.695C239.28 342.591 238.556 342.573 237.849 342.573C235.025 342.556 232.218 342.573 229.394 342.556C228.056 342.556 227.033 341.602 227.033 340.371C227.015 339.106 228.037 338.135 229.412 338.135C237.329 338.135 245.246 338.135 253.144 338.135C254.519 338.135 255.523 339.106 255.523 340.371C255.504 341.585 254.501 342.539 253.163 342.556C251.62 342.573 250.059 342.556 248.572 342.556C249.279 344.012 249.985 345.434 250.747 346.994C251.397 346.994 252.233 346.994 253.07 346.994C254.501 347.012 255.523 347.948 255.523 349.231C255.504 350.479 254.482 351.398 253.088 351.416C252.252 351.416 251.416 351.416 250.635 351.416C248.312 358.628 242.811 360.917 235.118 360.189C235.471 360.553 235.638 360.726 235.824 360.899C240.507 365.268 245.19 369.638 249.873 374.024C250.988 375.064 251.081 376.33 250.171 377.284C249.297 378.168 247.903 378.272 246.9 377.509C246.733 377.37 246.565 377.232 246.417 377.076C240.284 371.354 234.133 365.633 228.018 359.876C227.591 359.478 227.201 358.906 227.089 358.368C226.81 357.033 227.944 355.854 229.412 355.854C232.46 355.837 235.489 355.854 238.537 355.854C241.306 355.837 243.499 354.814 244.986 352.577C245.134 352.369 245.227 352.126 245.357 351.901C245.413 351.78 245.469 351.641 245.543 351.433C245.209 351.433 244.948 351.433 244.688 351.433C239.596 351.433 234.504 351.433 229.412 351.433C228.241 351.433 227.238 350.635 227.071 349.595C226.885 348.468 227.591 347.411 228.78 347.098C229.078 347.012 229.412 347.012 229.728 347.012C234.69 347.012 239.671 347.012 244.633 347.012C244.893 346.994 245.153 346.994 245.562 346.994Z" fill="#262F63"></path><path opacity="0.4" d="M458.695 480.579H325.29C319.844 480.586 314.618 478.606 310.763 475.074C306.907 471.542 304.739 466.748 304.734 461.747V453.318L320.135 293.507C320.135 283.128 311.382 280.857 311.382 280.857L427.538 280.858C444.753 280.858 458.708 293.671 458.708 309.478L458.695 480.579Z" fill="black"></path><path d="M474.553 498.225H341.3C335.86 498.233 330.64 496.077 326.789 492.233C322.938 488.389 320.772 483.172 320.768 477.729V468.555L320.668 294.625C320.668 283.329 311.926 280.857 311.926 280.857H443.431C460.626 280.857 474.565 294.803 474.565 312.006L474.553 498.225Z" fill="url(#paint3_linear_3385_626)"></path><path d="M433.524 381.693H344.207V387.47H433.524V381.693Z" fill="#5982BE"></path><path d="M433.524 369.916H344.207V375.693H433.524V369.916Z" fill="#5982BE"></path><path d="M433.524 393.471H344.207V399.248H433.524V393.471Z" fill="#5982BE"></path><path d="M515.928 454.527H353.977C353.977 454.527 357.178 470.114 351.931 486.781C349.324 495.062 338.477 498.04 338.477 498.04L490.663 498.231C504.617 498.231 515.929 486.915 515.932 472.955L515.928 454.527Z" fill="#5982BE"></path><path d="M349.168 351.448H360.304V355H344.752V333.88H349.168V351.448ZM363.971 355V333.88H379.811V337.432H368.387V342.68H377.379V346.072H368.387V351.448H380.259V355H363.971ZM400.925 333.88V337.432H393.853V355H389.437V337.432H382.333V333.88H400.925ZM421.237 333.88V337.432H414.165V355H409.749V337.432H402.645V333.88H421.237ZM424.846 355V333.88H440.686V337.432H429.262V342.68H438.254V346.072H429.262V351.448H441.134V355H424.846ZM454.408 333.88C456.797 333.88 458.674 334.456 460.04 335.608C461.405 336.76 462.088 338.307 462.088 340.248C462.088 342.317 461.405 343.907 460.04 345.016C458.674 346.104 456.808 346.648 454.44 346.648L453.992 346.904H449.448V355H445.096V333.88H454.408ZM453.896 343.544C455.133 343.544 456.05 343.299 456.648 342.808C457.266 342.296 457.576 341.517 457.576 340.472C457.576 339.427 457.266 338.659 456.648 338.168C456.05 337.656 455.133 337.4 453.896 337.4H449.448V343.544H453.896ZM456.488 344.472L463.336 355H458.376L452.712 345.752L456.488 344.472Z" fill="#5982BE"></path><path d="M345.146 409.952L346.883 412.593L348.619 409.952H350.414L347.802 413.527L350.458 417.248H348.605L346.781 414.505L344.898 417.248H343.118L345.861 413.571L343.264 409.952H345.146ZM353.033 409.952L354.769 412.593L356.506 409.952H358.301L355.689 413.527L358.344 417.248H356.491L354.667 414.505L352.785 417.248H351.005L353.748 413.571L351.15 409.952H353.033ZM360.92 409.952L362.656 412.593L364.392 409.952H366.187L363.575 413.527L366.231 417.248H364.378L362.554 414.505L360.671 417.248H358.891L361.635 413.571L359.037 409.952H360.92ZM368.806 409.952L370.543 412.593L372.279 409.952H374.074L371.462 413.527L374.118 417.248H372.265L370.441 414.505L368.558 417.248H366.778L369.521 413.571L366.924 409.952H368.806ZM345.146 424.952L346.883 427.593L348.619 424.952H350.414L347.802 428.527L350.458 432.248H348.605L346.781 429.505L344.898 432.248H343.118L345.861 428.571L343.264 424.952H345.146ZM353.033 424.952L354.769 427.593L356.506 424.952H358.301L355.689 428.527L358.344 432.248H356.491L354.667 429.505L352.785 432.248H351.005L353.748 428.571L351.15 424.952H353.033ZM360.92 424.952L362.656 427.593L364.392 424.952H366.187L363.575 428.527L366.231 432.248H364.378L362.554 429.505L360.671 432.248H358.891L361.635 428.571L359.037 424.952H360.92Z" fill="#5982BE"></path></g><defs><linearGradient id="paint0_linear_3385_626" x1="377.817" y1="118" x2="377.817" y2="454.896" gradientUnits="userSpaceOnUse"><stop stop-color="#8BCBBF"></stop><stop offset="1" stop-color="#5EA599"></stop></linearGradient><linearGradient id="paint1_linear_3385_626" x1="241.496" y1="414.806" x2="197.286" y2="307.382" gradientUnits="userSpaceOnUse"><stop stop-color="#E9A342"></stop><stop offset="1" stop-color="#F3BF75"></stop></linearGradient><linearGradient id="paint2_linear_3385_626" x1="244.09" y1="264.359" x2="242.695" y2="248.699" gradientUnits="userSpaceOnUse"><stop stop-color="#E8A341"></stop><stop offset="0.98" stop-color="#F3BF75"></stop></linearGradient><linearGradient id="paint3_linear_3385_626" x1="393.246" y1="280.857" x2="393.246" y2="498.225" gradientUnits="userSpaceOnUse"><stop stop-color="#F3FAFC"></stop><stop offset="1" stop-color="#DDE5FC"></stop></linearGradient><clipPath id="clip0_3385_626"><rect width="650" height="550" fill="white"></rect></clipPath></defs></svg> 